:SAMPLES-PER-SECOND 30
:FULLY-SPECIFIED
:DEGREES
336
root  -16.6582 38.6582 2.2956 51.5526 80.7337 54.8994
RightUpLeg  -12.339 4.65024 -11.4118
RightLeg  64.9655 2.58014 5.46284
RightFoot  1.72818 -0.973472 8.57646
RightToes  9.54606e-009 0 -3.6325e-017
Spine  4.89808 1.29002 -4.71424
Spine1  7.75106 2.02533 -6.52469
HEad  -18.7266 2.07682 -4.39195
LeftShoulder1  -0.676796 5.25179 -32.5453
LeftArm  8.47992 -1.48898 -41.3423
LeftForeArm  18.3581 -17.5596 -6.38119
LeftHand  -0.0329889 7.17209 0.393865
RightShoulder  -0.87976 -5.93106 29.6501
RightArm  20.9422 -5.54809 48.5516
RightForeArm  20.8348 12.6942 7.26
RightHand  -0.00893826 2.26012 -0.328976
LeftUpLeg  -9.85078 5.02964 -11.14
LeftLeg  21.7085 4.26782 1.56566
LeftFoot  -8.59488 -0.0882759 5.83371
LeftToes  -8.26734e-010 9.74065e-011 1.64617e-011
337
root  -15.4906 38.8276 2.2769 48.8465 81.401 52.3362
RightUpLeg  -15.9899 4.71586 -10.5047
RightLeg  61.8717 2.08936 3.72647
RightFoot  0.525265 -0.665357 6.43604
RightToes  9.54606e-009 0 -3.6325e-017
Spine  5.22328 0.913365 -4.83125
Spine1  7.5464 1.42037 -5.50405
HEad  -18.8489 2.59108 -4.24619
LeftShoulder1  -0.586681 5.05476 -31.6892
LeftArm  10.8097 -3.38554 -42.8417
LeftForeArm  16.9212 -20.4494 -4.94741
LeftHand  -0.026604 6.93852 0.75427
RightShoulder  -0.843154 -5.84198 29.4483
RightArm  23.705 -7.34117 47.2676
RightForeArm  15.167 16.4066 5.94313
RightHand  -0.0496633 3.01988 -0.875345
LeftUpLeg  -6.94936 4.74735 -10.2445
LeftLeg  20.3846 4.62791 1.26588
LeftFoot  -9.93426 -0.0104703 5.73112
LeftToes  -8.26734e-010 9.74065e-011 1.64617e-011
338
root  -14.3278 38.9539 2.23483 46.9216 82.1851 50.4464
RightUpLeg  -18.639 4.20466 -9.76841
RightLeg  55.6702 1.96909 2.70532
RightFoot  -0.935085 -0.536914 5.82286
RightToes  9.54606e-009 0 -3.6325e-017
Spine  5.60249 0.4009 -4.97613
Spine1  7.18755 0.634539 -4.15346
HEad  -18.8741 2.98981 -3.92272
LeftShoulder1  -0.567123 5.01013 -31.5
LeftArm  11.3859 -4.99714 -43.3561
LeftForeArm  16.3746 -23.594 -4.19067
LeftHand  -0.0233444 6.7897 1.0463
RightShoulder  -0.796991 -5.73929 29.0281
RightArm  24.2382 -7.8603 46.6074
RightForeArm  12.2552 17.8731 5.39895
RightHand  -0.119824 4.78607 -1.65956
LeftUpLeg  -4.22795 4.31377 -9.54677
LeftLeg  19.069 4.86281 1.15297
LeftFoot  -11.1168 0.0557266 5.88926
LeftToes  -8.26734e-010 9.74065e-011 1.64617e-011
339
root  -13.1347 39.0237 2.22988 44.6961 83.3062 48.21
RightUpLeg  -19.9455 3.40349 -8.56238
RightLeg  46.5868 1.94344 1.87861
RightFoot  -1.98063 -0.511719 6.10886
RightToes  9.54606e-009 0 -3.6325e-017
Spine  5.60321 -0.118146 -4.80681
Spine1  7.15801 -0.107332 -2.76976
HEad  -19.1341 3.79033 -3.94379
LeftShoulder1  -0.537329 4.94558 -31.1231
LeftArm  9.7731 -6.38827 -43.7211
LeftForeArm  17.7454 -26.427 -4.7173
LeftHand  -0.0103962 6.6875 2.01231
RightShoulder  -0.808913 -5.78646 28.8167
RightArm  24.2435 -7.88522 46.0978
RightForeArm  11.7443 18.6388 5.10688
RightHand  -0.0448496 3.72297 -0.84068
LeftUpLeg  -1.65158 4.42229 -8.5242
LeftLeg  18.0955 4.29728 1.03046
LeftFoot  -12.5963 0.142461 6.11847
LeftToes  -8.26734e-010 9.74065e-011 1.64617e-011
340
root  -11.9339 38.9979 2.2205 44.9407 83.7823 48.137
RightUpLeg  -20.7161 2.52993 -8.13696
RightLeg  35.6552 2.292 1.52282
RightFoot  -2.75173 -0.575206 7.38611
RightToes  9.54606e-009 0 -3.6325e-017
Spine  5.59496 -0.471907 -4.85438
Spine1  6.71359 -0.546086 -1.8742
HEad  -19.4097 3.62333 -3.86636
LeftShoulder1  -0.522008 4.91078 -30.9539
LeftArm  8.61531 -7.56075 -43.794
LeftForeArm  19.4672 -28.8625 -5.18561
LeftHand  -0.0222724 6.07072 1.60151
RightShoulder  -0.845563 -5.87465 29.0624
RightArm  22.9991 -7.91703 45.4368
RightForeArm  12.3817 18.838 4.91087
RightHand  -0.0503438 3.18453 -0.908036
LeftUpLeg  0.441064 4.29936 -8.31715
LeftLeg  17.3777 4.16748 1.13451
LeftFoot  -14.0757 0.23249 6.16971
LeftToes  -8.26734e-010 9.74065e-011 1.64617e-011
341
root  -10.6999 38.9652 2.23116 42.944 83.8922 45.7574
RightUpLeg  -20.8407 2.19437 -7.75915
RightLeg  23.7489 3.06385 1.31869
RightFoot  -2.04937 -0.589674 7.07496
RightToes  9.54606e-009 0 -3.6325e-017
Spine  5.11758 -0.536412 -4.81887
Spine1  6.90955 -0.688084 -0.789466
HEad  -19.5551 3.87058 -4.05943
LeftShoulder1  -0.525382 4.92526 -30.8059
LeftArm  7.99204 -8.77095 -44.1717
LeftForeArm  20.3673 -30.5621 -5.5367
LeftHand  -0.0129072 6.16552 2.61743
RightShoulder  -0.853821 -5.91416 28.8207
RightArm  20.9988 -7.59635 45.5146
RightForeArm  13.6796 18.006 4.98104
RightHand  -0.00179823 3.11329 -0.25385
LeftUpLeg  2.83312 4.60432 -7.97197
LeftLeg  15.9858 4.05452 0.895811
LeftFoot  -15.2514 0.308869 6.36396
LeftToes  -8.26734e-010 9.74065e-011 1.64617e-011
342
root  -9.43149 38.895 2.25705 43.1949 83.9997 45.3564
RightUpLeg  -20.9009 0.850868 -7.00691
RightLeg  12.2542 6.3173 0.719967
RightFoot  -1.9134 -0.552906 6.53319
RightToes  9.54606e-009 0 -3.6325e-017
Spine  4.44857 -0.561134 -4.83731
Spine1  6.9392 -0.85076 0.420392
HEad  -19.9691 3.78618 -4.00628
LeftShoulder1  -0.567579 5.03006 -31.035
LeftArm  7.96196 -9.65851 -44.1646
LeftForeArm  21.0543 -31.8501 -5.81035
LeftHand  -0.0165505 6.0753 2.32235
RightShoulder  -0.827766 -5.85905 28.5341
RightArm  19.1336 -7.85372 45.4461
RightForeArm  13.9619 17.4137 4.99539
RightHand  -0.0310334 3.85864 -0.655785
LeftUpLeg  5.0614 4.75418 -7.76646
LeftLeg  14.438 3.80156 0.631724
LeftFoot  -16.3831 0.370367 6.17022
LeftToes  -8.26734e-010 9.74065e-011 1.64617e-011
